HIERARCHY
ROOT Pelvis
{
	OFFSET 0.000000 0.000000 0.000000
	CHANNELS 6 Xposition Yposition Zposition Xrotation Yrotation Zrotation
	JOINT LeftUpLeg_virtual
	{
		OFFSET 0.000000 0.000000 0.000000
		CHANNELS 3 Xrotation Yrotation Zrotation
		JOINT LeftUpLeg
		{
			OFFSET 8.479700 -4.795502 -0.379100
			CHANNELS 3 Xrotation Yrotation Zrotation
			JOINT LeftLeg
			{
				OFFSET 0.024144 -32.555107 0.112900
				CHANNELS 3 Xrotation Yrotation Zrotation
				JOINT LeftFoot
				{
					OFFSET -0.024144 -32.638630 -3.012600
					CHANNELS 3 Xrotation Yrotation Zrotation
					JOINT LeftToeBase
					{
						OFFSET 0.970200 -13.225400 11.864200
						CHANNELS 3 Xrotation Yrotation Zrotation
						End Site
						{
							OFFSET 0 0 0
						}
					}
				}
			}
		}
	}
	JOINT RightUpLeg_virtual
	{
		OFFSET 0.000000 0.000000 0.000000
		CHANNELS 3 Xrotation Yrotation Zrotation
		JOINT RightUpLeg
		{
			OFFSET -8.479700 -4.795502 -0.379100
			CHANNELS 3 Xrotation Yrotation Zrotation
			JOINT RightLeg
			{
				OFFSET -0.023144 -32.555092 0.112900
				CHANNELS 3 Xrotation Yrotation Zrotation
				JOINT RightFoot
				{
					OFFSET 0.023144 -32.638641 -3.012700
					CHANNELS 3 Xrotation Yrotation Zrotation
					JOINT RightToeBase
					{
						OFFSET -0.970200 -13.225400 11.864200
						CHANNELS 3 Xrotation Yrotation Zrotation
						End Site
						{
							OFFSET 0 0 0
						}
					}
				}
			}
		}
	}
	JOINT Hips_virtual
	{
		OFFSET 0.000000 0.000000 0.000000
		CHANNELS 3 Xrotation Yrotation Zrotation
		JOINT Hips
		{
			OFFSET -0.000000 -0.000000 -0.000000
			CHANNELS 3 Xrotation Yrotation Zrotation
			JOINT Spine
			{
				OFFSET 0.000000 7.722000 1.166200
				CHANNELS 3 Xrotation Yrotation Zrotation
				JOINT Spine1
				{
					OFFSET 0.000000 12.024101 0.248800
					CHANNELS 3 Xrotation Yrotation Zrotation
					JOINT Spine2
					{
						OFFSET 0.000000 11.502998 -0.491200
						CHANNELS 3 Xrotation Yrotation Zrotation
						JOINT Neck_virtual
						{
							OFFSET 0.000000 0.000000 0.000000
							CHANNELS 3 Xrotation Yrotation Zrotation
							JOINT Neck
							{
								OFFSET 0.000000 18.430702 -3.123100
								CHANNELS 3 Xrotation Yrotation Zrotation
								JOINT Head
								{
									OFFSET 0.000000 9.051102 1.034000
									CHANNELS 3 Xrotation Yrotation Zrotation
									End Site
									{
										OFFSET 0 0 0
									}
								}
							}
						}
						JOINT LeftShoulder_virtual
						{
							OFFSET 0.000000 0.000000 0.000000
							CHANNELS 3 Xrotation Yrotation Zrotation
							JOINT LeftShoulder
							{
								OFFSET 6.197800 13.665199 -4.064700
								CHANNELS 3 Xrotation Yrotation Zrotation
								JOINT LeftArm
								{
									OFFSET 7.778100 -0.187103 -1.709300
									CHANNELS 3 Xrotation Yrotation Zrotation
									JOINT LeftForeArm
									{
										OFFSET 22.049376 0.000000 0.000000
										CHANNELS 3 Xrotation Yrotation Zrotation
										JOINT LeftHand
										{
											OFFSET 23.009392 0.000000 0.000000
											CHANNELS 3 Xrotation Yrotation Zrotation
											End Site
											{
												OFFSET 0 0 0
											}
										}
									}
								}
							}
						}
						JOINT RightShoulder_virtual
						{
							OFFSET 0.000000 0.000000 0.000000
							CHANNELS 3 Xrotation Yrotation Zrotation
							JOINT RightShoulder
							{
								OFFSET -6.197800 13.665199 -4.064700
								CHANNELS 3 Xrotation Yrotation Zrotation
								JOINT RightArm
								{
									OFFSET -7.778100 -0.187103 -1.709300
									CHANNELS 3 Xrotation Yrotation Zrotation
									JOINT RightForeArm
									{
										OFFSET -22.049376 0.000000 0.000000
										CHANNELS 3 Xrotation Yrotation Zrotation
										JOINT RightHand
										{
											OFFSET -23.009392 0.000000 0.000000
											CHANNELS 3 Xrotation Yrotation Zrotation
											End Site
											{
												OFFSET 0 0 0
											}
										}
									}
								}
							}
						}
					}
				}
			}
		}
	}
}
MOTION
Frames: 13
Frame Time: 0.03333333
-18.511282 112.777908 26.554205 0.000000 0.000000 0.000000 2.233466 -19.991380 1.918771 -23.392981 10.007998 3.693465 38.214441 6.250943 4.289888 22.990266 -0.479655 -4.181513 0.000000 0.000000 0.000000 2.233466 -19.991380 1.918771 -3.187353 -7.187376 -2.523066 17.905220 -22.923754 3.733296 33.535662 -3.270529 -3.029778 0.000000 0.000000 0.000000 2.233466 -19.991380 1.918771 0.000000 0.000000 0.000000 -1.335420 -0.060620 -0.571526 -2.672068 -0.088750 -1.714353 0.000000 0.000000 0.000000 -2.672068 -0.088748 -1.714353 -29.250138 2.152606 0.925376 0.000000 0.000000 0.000000 -2.672068 -0.088748 -1.714353 3.677176 6.194740 24.143600 -59.663335 -29.699285 18.551125 -28.273611 -50.304804 4.575661 0.000000 0.000000 0.000000 -2.672068 -0.088748 -1.714353 -5.618869 -8.488125 -29.945264 -79.202471 30.402084 25.861297 -28.766971 45.497345 -9.943791 0.000000 0.000000 0.000000 
-18.532290 112.072731 27.014814 0.000000 0.000000 0.000000 1.981393 -19.328286 1.641907 -24.248507 9.609003 3.322849 38.905919 8.132728 4.030360 26.177477 -0.348234 -2.784273 0.000000 0.000000 0.000000 1.981393 -19.328286 1.641907 -4.497934 -7.448406 -3.139748 18.856803 -22.169807 3.761356 35.887921 -3.213303 -3.536038 0.000000 0.000000 0.000000 1.981393 -19.328286 1.641907 0.000000 0.000000 0.000000 -1.423302 -0.127490 -0.510213 -2.849547 -0.229102 -1.624431 0.000000 0.000000 0.000000 -2.849544 -0.229103 -1.624431 -27.415818 2.071723 -0.405983 0.000000 0.000000 0.000000 -2.849544 -0.229103 -1.624431 4.781806 6.071385 25.311127 -58.312767 -25.193199 16.875538 -25.969926 -55.829574 7.584413 0.000000 0.000000 0.000000 -2.849544 -0.229103 -1.624431 -3.148150 -6.622055 -28.188290 -74.921206 31.517245 20.078740 -28.646385 45.441074 -7.798875 0.000000 0.000000 0.000000 
-18.544394 111.217117 27.468245 0.000000 0.000000 0.000000 1.646331 -18.535467 1.335996 -24.930114 9.107066 3.168268 39.600423 10.190447 3.353926 29.223343 -0.172715 -1.034538 0.000000 0.000000 0.000000 1.646331 -18.535467 1.335996 -5.718678 -7.396320 -3.540678 19.851670 -20.872534 3.604211 38.333887 -2.789804 -4.221810 0.000000 0.000000 0.000000 1.646331 -18.535467 1.335996 0.000000 -0.000001 0.000000 -1.508389 -0.159852 -0.450289 -3.020491 -0.300869 -1.519637 0.000000 0.000000 0.000000 -3.020491 -0.300878 -1.519637 -26.025212 2.006425 -1.891969 0.000000 0.000000 0.000000 -3.020491 -0.300878 -1.519637 5.846716 6.266301 26.599547 -57.037195 -19.937334 14.143165 -23.702578 -62.699525 11.221734 0.000000 0.000000 0.000000 -3.020491 -0.300878 -1.519637 -2.023503 -4.492266 -27.139989 -68.184310 31.329443 12.866656 -29.783023 45.104022 -2.566852 0.000000 0.000000 0.000000 
-18.560162 110.271744 27.927160 0.000000 0.000000 0.000000 1.243637 -17.596352 1.007197 -25.424435 8.994389 3.033194 40.190093 11.779348 2.950782 31.889023 0.264077 0.703647 0.000000 0.000000 0.000000 1.243637 -17.596352 1.007197 -6.880647 -7.297979 -3.370931 20.739953 -20.012427 2.266816 40.662852 -1.667095 -3.923482 0.000000 0.000000 0.000000 1.243637 -17.596352 1.007197 0.000000 -0.000001 0.000000 -1.644702 -0.146011 -0.334107 -3.292606 -0.278829 -1.303055 0.000000 0.000000 0.000000 -3.292603 -0.278817 -1.303054 -24.829278 1.898689 -2.852161 0.000000 0.000000 0.000000 -3.292603 -0.278817 -1.303054 6.717991 6.329313 27.810083 -55.092586 -13.574159 10.508922 -20.928133 -71.280141 15.947216 0.000000 0.000000 0.000000 -3.292603 -0.278817 -1.303054 -0.962622 -3.617261 -26.818758 -63.904268 30.681121 10.710906 -28.415916 46.120395 -0.431034 0.000000 0.000000 0.000000 
-18.589954 109.289314 28.400961 0.000000 0.000000 0.000000 0.798537 -16.507783 0.677080 -25.740056 8.762934 3.205914 40.890669 13.170169 1.943873 33.902505 0.880535 2.680216 0.000000 0.000000 0.000000 0.798537 -16.507783 0.677080 -7.719378 -7.744684 -3.850105 21.783085 -18.144637 2.250177 42.468296 -1.274321 -3.437791 0.000000 0.000000 0.000000 0.798537 -16.507783 0.677080 0.000000 -0.000001 0.000000 -1.821538 -0.106227 -0.189539 -3.645187 -0.203658 -1.025180 0.000000 0.000000 0.000000 -3.645184 -0.203657 -1.025179 -24.267537 1.941322 -3.350652 0.000000 0.000000 0.000000 -3.645184 -0.203657 -1.025179 7.320409 6.338418 28.981801 -52.671789 -14.065381 9.121992 -21.909893 -68.157993 16.846894 0.000000 0.000000 0.000000 -3.645184 -0.203657 -1.025179 -0.014701 -4.129701 -27.086660 -59.415098 29.020903 8.331369 -28.878931 47.707584 6.939935 0.000000 0.000000 0.000000 
-18.641748 108.325233 28.897507 0.000000 0.000000 0.000000 0.343256 -15.281426 0.365693 -25.894325 8.500708 3.136965 41.453675 14.430735 1.314938 35.322067 1.393897 4.333955 0.000000 0.000000 0.000000 0.343256 -15.281426 0.365693 -8.355446 -8.035356 -3.720610 22.541696 -16.333293 1.324455 43.933908 -1.065408 -1.907058 0.000000 0.000000 0.000000 0.343256 -15.281426 0.365693 0.000000 0.000001 0.000000 -2.033228 -0.069809 -0.027280 -4.067669 -0.134286 -0.708513 0.000000 0.000000 0.000000 -4.067669 -0.134283 -0.708514 -23.990384 2.384004 -5.202903 0.000000 0.000000 0.000000 -4.067669 -0.134283 -0.708514 7.397605 6.276449 30.124782 -50.546228 -14.728038 7.822473 -23.333335 -64.851697 15.435908 0.000000 0.000000 0.000000 -4.067669 -0.134283 -0.708514 0.236018 -5.224687 -28.113368 -56.133794 28.750063 7.183382 -28.925674 47.084763 12.393196 0.000000 0.000000 0.000000 
-18.722658 107.424805 29.421667 0.000000 0.000000 0.000000 -0.087452 -13.943950 0.096706 -25.941347 8.441238 2.713085 41.726927 15.404522 1.598191 36.226060 1.618421 5.379831 0.000000 0.000000 0.000000 -0.087452 -13.943950 0.096706 -8.709871 -8.209568 -3.644637 23.242732 -15.505238 0.772957 44.926754 -0.620946 -0.720140 0.000000 0.000000 0.000000 -0.087452 -13.943950 0.096706 0.000000 0.000001 0.000000 -2.280703 -0.044710 0.132424 -4.562061 -0.087128 -0.386022 0.000000 0.000000 0.000000 -4.562058 -0.087124 -0.386021 -23.447095 2.359041 -6.200323 0.000000 0.000000 0.000000 -4.562058 -0.087124 -0.386021 7.398154 6.285343 31.154433 -49.635661 -15.601482 6.611096 -24.426109 -61.402567 12.175177 0.000000 0.000000 0.000000 -4.562058 -0.087124 -0.386021 -0.249757 -6.001718 -29.953327 -55.276427 31.700820 8.105685 -26.528972 41.626561 8.814947 0.000000 0.000000 0.000000 
-18.832483 106.622269 29.975744 0.000000 0.000000 0.000000 -0.461562 -12.535152 -0.111569 -25.916086 8.380513 2.189196 41.867434 15.925561 2.066134 36.602506 1.864189 5.991220 0.000000 0.000000 0.000000 -0.461562 -12.535152 -0.111569 -8.821836 -8.047058 -3.655033 23.875474 -15.521093 0.761197 45.518973 -0.257368 0.154487 0.000000 0.000000 0.000000 -0.461562 -12.535152 -0.111569 0.000000 0.000001 0.000000 -2.519815 -0.030859 0.233079 -5.040000 -0.061266 -0.169479 0.000000 0.000000 0.000000 -5.039999 -0.061265 -0.169479 -23.827142 1.903167 -5.577697 0.000000 0.000000 0.000000 -5.039999 -0.061265 -0.169479 7.348066 6.827391 32.197648 -50.084363 -16.986061 5.313359 -25.169425 -57.653647 7.865957 0.000000 0.000000 0.000000 -5.039999 -0.061265 -0.169479 -1.010196 -6.529067 -31.967871 -55.410839 34.083153 9.550123 -24.192421 35.946924 6.614240 0.000000 0.000000 0.000000 
-18.970694 105.939034 30.559120 0.000000 0.000000 0.000000 -0.754753 -11.103634 -0.246959 -25.879539 8.781162 2.521325 42.251526 15.559072 1.389188 36.258408 2.226022 7.128998 0.000000 0.000000 0.000000 -0.754753 -11.103634 -0.246959 -8.760191 -7.989860 -3.895620 24.422279 -15.693546 1.373847 45.775805 -0.204477 0.632269 0.000000 0.000000 0.000000 -0.754753 -11.103634 -0.246959 0.000000 0.000000 0.000000 -2.774397 -0.021183 0.263215 -5.549017 -0.041587 -0.086125 0.000000 0.000000 0.000000 -5.549016 -0.041590 -0.086126 -24.648650 1.542046 -4.657934 0.000000 0.000000 0.000000 -5.549016 -0.041590 -0.086126 6.950504 7.469992 33.422810 -50.786073 -19.191489 3.315333 -24.941788 -53.333792 5.173497 0.000000 0.000000 0.000000 -5.549016 -0.041590 -0.086126 -0.904694 -7.260176 -33.588005 -58.383337 36.127200 13.575329 -22.576669 30.945026 2.852173 0.000000 0.000000 0.000000 
-19.134754 105.390335 31.167988 0.000000 0.000000 0.000000 -0.954088 -9.701876 -0.296641 -25.822886 9.244598 2.615809 42.389018 15.218724 1.245229 35.666940 2.224663 7.867021 0.000000 0.000000 0.000000 -0.954088 -9.701876 -0.296641 -8.590869 -7.907684 -3.938139 24.704506 -16.352530 1.739063 45.883852 -0.033124 0.886275 0.000000 0.000000 0.000000 -0.954088 -9.701876 -0.296641 0.000000 0.000000 0.000000 -3.029647 -0.009254 0.290603 -6.059361 -0.019088 0.004834 0.000000 0.000000 0.000000 -6.059359 -0.019085 0.004834 -23.872459 1.354873 -4.509962 0.000000 0.000000 0.000000 -6.059359 -0.019085 0.004834 6.152873 8.048890 34.407686 -51.875116 -22.068688 0.441641 -23.786805 -48.661901 4.291035 0.000000 0.000000 0.000000 -6.059359 -0.019085 0.004834 -0.117881 -7.940962 -34.996503 -60.812740 37.491851 15.540540 -22.381154 26.520361 1.242650 0.000000 0.000000 0.000000 
-19.320383 104.975868 31.796165 0.000000 0.000000 0.000000 -1.059638 -8.380284 -0.256468 -25.737543 9.184214 2.303848 42.331668 15.196455 1.483572 35.016228 2.077801 7.909951 0.000000 0.000000 0.000000 -1.059638 -8.380284 -0.256468 -8.346720 -7.741609 -3.884519 24.764896 -17.424127 2.015108 45.900719 0.251655 0.834401 0.000000 0.000000 0.000000 -1.059638 -8.380284 -0.256468 0.000000 0.000000 0.000000 -3.260504 0.004080 0.274549 -6.520957 0.006271 0.019783 0.000000 0.000000 0.000000 -6.520960 0.006273 0.019784 -22.838612 1.039097 -4.193019 0.000000 0.000000 0.000000 -6.520960 0.006273 0.019784 5.286984 8.875914 35.225635 -53.618419 -25.219673 -2.745024 -22.669907 -43.810828 3.955128 0.000000 0.000000 0.000000 -6.520960 0.006273 0.019784 0.642540 -8.082593 -35.887754 -62.197096 38.188646 15.827041 -22.556128 23.260295 1.039024 0.000000 0.000000 0.000000 
-19.522043 104.685028 32.435650 0.000000 0.000000 0.000000 -1.083810 -7.181738 -0.132244 -25.651144 9.103339 2.219843 42.282358 15.218256 1.366080 34.240469 1.787746 7.990213 0.000000 0.000000 0.000000 -1.083810 -7.181738 -0.132244 -8.090075 -7.246471 -3.432424 24.500683 -18.609906 1.662748 45.946437 0.507843 1.075912 0.000000 0.000000 0.000000 -1.083810 -7.181738 -0.132244 0.000000 0.000001 0.000000 -3.459739 0.013741 0.253532 -6.919346 0.023683 0.025092 0.000000 0.000000 0.000000 -6.919350 0.023681 0.025092 -21.668019 0.750979 -3.479451 0.000000 0.000000 0.000000 -6.919350 0.023681 0.025092 4.694369 10.150091 35.601562 -55.970928 -28.479763 -5.930196 -22.073356 -38.996087 3.940865 0.000000 0.000000 0.000000 -6.919350 0.023681 0.025092 1.163573 -7.708489 -36.459509 -62.628272 38.422696 14.987879 -22.639751 21.184658 1.611501 0.000000 0.000000 0.000000 
-19.734016 104.499329 33.076321 0.000000 0.000000 0.000000 -1.048611 -6.137849 0.069346 -25.561437 8.978542 1.969798 42.091082 15.225946 1.540758 33.568904 1.529072 7.623834 0.000000 0.000000 0.000000 -1.048611 -6.137849 0.069346 -7.824621 -7.088281 -3.159002 24.063122 -19.010788 1.471488 45.946314 0.406034 1.246277 0.000000 0.000000 0.000000 -1.048611 -6.137849 0.069346 0.000000 0.000000 0.000000 -3.644973 0.015360 0.246685 -7.289821 0.023304 0.059702 0.000000 0.000000 0.000000 -7.289822 0.023304 0.059702 -20.866487 0.727884 -2.888149 0.000000 0.000000 0.000000 -7.289822 0.023304 0.059702 4.143836 11.334732 35.636546 -58.368112 -31.346723 -8.742704 -21.818951 -34.469007 3.689760 0.000000 0.000000 0.000000 -7.289822 0.023304 0.059702 1.402238 -6.971905 -36.968935 -62.399925 38.413264 13.674755 -22.431262 19.959027 2.471210 0.000000 0.000000 0.000000 
